<svg width="671" height="178" xmlns="http://www.w3.org/2000/svg" xmlns:xlink="http://www.w3.org/1999/xlink"><defs><radialGradient cx="10.679%" cy="28.73%" fx="10.679%" fy="28.73%" r="174.466%" gradientTransform="matrix(.70625 .66658 -.70796 .66498 .235 .025)" id="c"><stop stop-color="#F98520" offset="0%"/><stop stop-color="#C63E0D" offset="100%"/></radialGradient><path d="M18.432 125.39c8.638 9.68 16.208 15.417 27.818 21.228C54.667 150.833 69.128 154 80.998 154c6.838 0 10.9-.156 10.9-5.814 0-5.485-7.669-3.634-10.9-3.634-11.441 0-22.515-2.165-31.48-6.656-8.058-4.036-13.97-8.11-20.003-14.143-18.75-18.741-25.87-48.462-14.523-75.022 3.632-8.504 9.89-17.895 16.97-23.355 1.499-1.154 2.775-2.436 4.43-3.565 1.759-1.188 2.879-2.016 4.81-3.182 17.72-10.657 42.695-12.907 61.381-2.492.93.52 1.553.81 2.395 1.245 10.691 5.494 20.273 16.521 25.301 27.371 10.304 22.22 5.471 48.941-10.684 65.015-15.674 15.588-39.181 21.937-60.496 12.729-3.001-1.3-5.738-2.788-8.247-4.463-1.238-.834-2.479-1.653-3.636-2.542-11.13-8.533-19.61-22.746-19.61-37.79 0-8.358.82-15.566 4.232-22.655 2.426-5.037 5.21-9.535 8.935-13.23 2.061-2.045 3.436-3.37 5.768-5.127 6.453-4.859 15.578-9.111 23.928-9.133 3.622-.007 5.532-.532 9.972.195 3.39.558 5.86 1.124 8.782 2.116 10.674 3.637 18.483 11.062 23.766 20.559 5.455 9.814 6.026 22.851 2.208 33.5-.616 1.713-1.75 3.885-2.867 5.13-1.366 1.524-2.709 2.616-4.448 3.54V71.886c0-9.514-.36-17.534-9.848-21.397-5.302-2.153-12.122-2.361-17.81-.457-2.638.88-4.431 2.672-6.487 4.05-5.784-8.642-33.783-8.327-33.783 11.625V97.32c0 2.744 2.594 3.636 5.085 3.636 5.374 0 4.36-4.65 4.36-9.814 0-4.536-.585-25.332.287-28.053 2.093-6.545 17.054-6.95 19.169-.13 1.399 4.513.198 27.128.503 34.385.128 3.093 2.469 3.612 5.106 3.612 5.297 0 3.997-4.952 3.997-10.175 0-5.276-.66-24.115.578-27.764 2.354-6.928 18.093-6.688 19.318.95 1.114 6.902-.528 22.515.09 30.798.896 12.045 17.04 8.714 23.48-3.374 8.549-16.042 5.943-36.365-4.093-50.902-2.534-3.673-5.572-7.058-8.972-9.916-1.312-1.105-2.317-1.78-3.731-2.806-7.763-5.625-17.72-9.657-28.49-9.657-10.266 0-18.224 1.382-26.523 5.447-19.568 9.591-31.954 28.862-31.954 52.69 0 8.76 2.516 18.177 5.445 23.984 3.244 6.424 6.967 12.234 12.079 17.346 10.514 10.514 25.513 18.256 40.954 18.256 13.101 0 20.061-.998 31.486-6.292l4.861-2.769a82.082 82.082 0 0 0 4.851-3.138c3.073-2.14 5.608-4.645 8.294-7.33 8.216-8.222 13.876-18.362 16.768-29.735 5.365-21.119.252-43.28-13.182-60.15-6.705-8.417-16.64-16.44-26.77-20.456-4.288-1.702-8.138-3.067-12.859-4.21C75.059-1.89 57.473.326 43.829 6.728c-4.182 1.96-7.963 4.129-11.798 6.726C15.266 24.826 2.463 45.79.717 66.426.497 69.014 0 72.467 0 75.155c0 17.871 6.695 37.089 18.432 50.235z" id="b"/><filter x="-14.1%" y="-10.1%" width="128.3%" height="126.6%" filterUnits="objectBoundingBox" id="a"><feOffset dy="5" in="SourceAlpha" result="shadowOffsetOuter1"/><feGaussianBlur stdDeviation="6" in="shadowOffsetOuter1" result="shadowBlurOuter1"/><feColorMatrix values="0 0 0 0 0 0 0 0 0 0 0 0 0 0 0 0 0 0 0.5 0" in="shadowBlurOuter1"/></filter><path d="M162 34.437v65.707c3.303.77 6.888.77 10.192 0V51.385c1.053.773 1.935 2.664 2.814 3.974.997 1.49 1.687 2.525 2.72 4.066 2.277 3.411 15.058 23.254 16.787 24.41 2.659-.709 9.982-13.247 11.55-15.593 1.618-2.426 10.006-15.457 11.257-16.372v48.274c3.303.77 6.888.77 10.191 0v-66.93c-.415-1.603-2.138-1.2-8.25-1.2-1.926 0-11.016 14.795-12.52 17.046-1.675 2.508-10.958 16.895-12.228 17.824-.52-1.942-18.406-27.92-21.334-32.463-2.247-3.487-3.056-2.408-10.693-2.408-.254 1.084-.486 1.112-.486 2.424zm287.765 31.48c0 10.305 2.687 18.63 7.687 24.774 8.222 10.112 16.94 10.58 28.223 10.58 3.55 0 7.18-1.153 9.856-2.27 7.312-3.062 11.752-9.355 13.766-16.822 1.19-4.415.241-3.67-7.123-3.67-3.182 0-2.703 2.065-3.73 4.512-5.182 12.373-25.35 11.964-32.682 2.284-10.392-13.728-8.307-45.058 16.515-45.058 17.013 0 15.83 12.592 18.926 12.592 9.725 0 9.196.725 7.99-3.582-2.24-8.009-7.232-13.056-14.916-16.144-11.496-4.614-28.972-1.562-36.273 8.09-4.836 6.395-8.24 13.485-8.24 24.714zm68.42-29.837v64.064c3.28.77 6.838.77 10.115 0V82.505c-.026-1.995-.045-3.996 0-5.912.016-.666.042-1.32.076-1.96 1.024-19.939 17.715-16.516 20.805-10.594 1.941 3.722 1.796 18.356 1.624 27.853l-.076 4.227a142.485 142.485 0 0 0-.031 2.537l.031 1.488c3.274.77 6.835.77 10.116 0v-2.537c.028-.126.043-.262.043-.404V71.729c0-6.92-1.461-11.468-4.35-15.518-4.2-5.88-14.798-7.113-22.15-4.151-1.335.538-2.16 1.038-3.106 1.742-1.354 1.003-1.224 1.494-2.906 1.943V32.578a22.876 22.876 0 0 0-10.191 0v3.502zM385.706 59.619c7.72 0 11.648 4.319 11.648 12.11h-22.807c0-7.275 3.979-12.11 11.16-12.11zm-22.321 14.045v3.875c0 12.595 8.418 23.732 20.868 23.732h5.822c8.284 0 16.499-7.166 16.499-15.498h-8.734c-2.167 0-.676 2.116-4.052 4.67-4.801 3.64-19.241 3.551-19.241-10.48h33.969c0-8.282-.11-16.405-5.936-22.653-13.041-13.99-39.195-6.451-39.195 16.354zm227.592-14.045c7.514 0 11.645 4.591 11.645 12.11h-22.807c0-7.477 3.836-12.11 11.162-12.11zm3.284 41.652h-4.87c-5.88-.493-11.504-2.774-14.861-6.833-6.013-7.274-5.877-12.373-5.877-21.256 0-6.27 3.001-12.835 6.178-16.12 12.348-12.757 38.954-7.903 38.954 18.539 0 3.117.43 4.361-1.457 4.361h-32.513c0 13.766 13.647 14.31 19.228 10.47 5.737-3.943-3.55-4.66 12.8-4.66 0 9.58-8.421 14.726-17.582 15.5zm-338.12-8.718c-1.441 0-4.912-.747-6-1.276-4.049-1.97-6.74-15.369 14.24-12.76 4.353.546 3.893.362 3.893 4.834 0 3.274-1.812 5.446-3.786 6.875-1.349.975-6.19 2.327-8.348 2.327zm12.57 3.424v4.167c3.16.77 6.593.77 9.754 0V68.337c0-12.66-7.853-17.922-19.897-17.922-9.966 0-19.41 4.799-19.41 14.534 0 2.273 2.984 1.45 8.733 1.45 3.497 0-2.034-6.78 11.648-6.78 9.544 0 8.735 5.696 8.735 11.14-3.307 0-6.572-.968-9.706-.968-4.775 0-11.81 1.636-14.776 3.657-12.07 8.215-6.641 27.823 7.497 27.823h2.703c7.574-.015 7.302-.335 14.72-5.294zm17.518-31.516c0 19.064 28.143 11.771 28.143 21.312 0 2.575.451 4.288-3.073 5.65-4.9 1.893-15.849 2.564-15.849-7.588-3.355 0-10.191-.722-10.191.97 0 9.936 6.967 16.466 16.013 16.466h6.793c7.786 0 16.499-5.202 16.499-12.594 0-4.594.378-8.597-3.75-12.236-7.85-6.916-24.393-3.474-24.393-11.98 0-6.102 11.416-5.447 14.7-3.532 2.338 1.369 2.122 2.715 2.77 5.47h9.702c2-9.412-7.25-15.984-18.923-15.984-9.747 0-18.441 4.466-18.441 14.046zM624.947 45.09v6.295c-10.716 0-8.739-2.014-8.739 9.202h8.739v39.557c3.3.77 6.888.77 10.188 0V60.587c13.974 0 11.648 1.999 11.648-7.748 0-2.496-4.798-1.454-11.648-1.454 0-9.447-.993-8.233 12.133-8.233v-9.204h-9.22c-6.62 0-13.101 4.742-13.101 11.142zm-288.253-2.908v9.203c-10.546 0-8.732-1.736-8.732 7.749 0 2.277 2.983 1.453 8.732 1.453v27.609c0 12.423 14.884 13.949 22.81 12.107v-8.715c-6.174 0-12.618 1.196-12.618-3.88v-27.12c15.106 0 12.618 2.07 12.618-7.75 0-2.558-5.498-1.453-12.618-1.453 0-3.804.019-6.217.003-7.835v-2.708a22.826 22.826 0 0 0-10.195 0v1.34zm79.587 58.12c3.302.77 6.888.77 10.19 0 0-8.705-.107-17.474-.019-26.173.042-4.364 1.174-8.58 3.694-10.844 3.687-3.312 9.417-2.698 14.766-2.698 0-10.643 1.171-9.202-4.854-9.202-2.78 0-5.374.396-7.605 1.127-3.272 1.077-3.493 1.92-5.982 3.233-.593-2.371-.77-3.726-1.979-3.806-1.18-.079-4.664-.006-6.755-.006-.816 0-1.247.754-1.456 1.926v46.444z" id="e"/><filter x="-4.2%" y="-22.1%" width="108.4%" height="158.3%" filterUnits="objectBoundingBox" id="d"><feOffset dy="5" in="SourceAlpha" result="shadowOffsetOuter1"/><feGaussianBlur stdDeviation="6" in="shadowOffsetOuter1" result="shadowBlurOuter1"/><feColorMatrix values="0 0 0 0 0 0 0 0 0 0 0 0 0 0 0 0 0 0 0.5 0" in="shadowBlurOuter1"/></filter></defs><g fill="none" fill-rule="evenodd"><g transform="translate(12 7)"><use fill="#000" filter="url(#a)" xlink:href="#b"/><use fill="url(#c)" xlink:href="#b"/></g><g transform="translate(12 7)"><use fill="#000" filter="url(#d)" xlink:href="#e"/><use fill="#FFF" xlink:href="#e"/></g></g></svg>